# xmcd CD database file
#
# Track frame offsets:
#	150
#	1720
#	17320
#	22094
#	27596
#	34743
#	67449
#	82472
#	88097
#	90318
#	107056
#	122043
#	126479
#	131996
#	160266
#	167405
#	171500
#	176545
#	200719
#	209414
#	212929
#	236876
#	242853
#	247086
#	251621
#	289541
#	291411
#	293931
#	296628
#	300284
#	341749
#	346341
#
# Disc length: 4669 seconds
#
# Revision: 0
# Processed by: cddbd v1.5.2PL0 Copyright (c) Steve Scherf et al.
# Submitted via: CDex 1.51
#
DISCID=f9123b20
DTITLE=Bruce Springsteen and Friends - The Nebraska Project   Disc 2
DYEAR=2006
DGENRE=Country
TTITLE0=Nebraska Project 2 - nebraska36 harry manx intro
TTITLE1=Nebraska Project 2 - hm
TTITLE2=Nebraska Project 2 - nebraska38 harry intrvw
TTITLE3=Nebraska Project 2 - reads from songs 03
TTITLE4=Nebraska Project 2 - nebraska40 dan zanes intro
TTITLE5=Nebraska Project 2 - dz, vernon reid
TTITLE6=Nebraska Project 2 - nebraska42 dan intrvw
TTITLE7=Nebraska Project 2 - nebraska43 laura cantrell intro
TTITLE8=Nebraska Project 2 - nebraska44 laura intros her band
TTITLE9=Nebraska Project 2 - lc
TTITLE10=Nebraska Project 2 - nebraska46 laura intrvw
TTITLE11=Nebraska Project 2 - reads from songs 04
TTITLE12=Nebraska Project 2 - nebraska48 gary lucas intro
TTITLE13=Nebraska Project 2 - gl
TTITLE14=Nebraska Project 2 - nebraska50 gl intrvw
TTITLE15=Nebraska Project 2 - nebraska51 dj banter
TTITLE16=Nebraska Project 2 - nebraska52 otis taylor intro
TTITLE17=Nebraska Project 2 - ot
TTITLE18=Nebraska Project 2 - nebraska54 otis intrvw
TTITLE19=Nebraska Project 2 - nebraska55 mark eitzel intro
TTITLE20=Nebraska Project 2 - me
TTITLE21=Nebraska Project 2 - nebraska57 me interview
TTITLE22=Nebraska Project 2 - nebraska58 kevin kinney intro
TTITLE23=Nebraska Project 2 - nebraska59 lenny kaye intro
TTITLE24=Nebraska Project 2 - kk, lk, dz, sc
TTITLE25=Nebraska Project 2 - kk intrvw
TTITLE26=Nebraska Project 2 - credits
TTITLE27=Nebraska Project 2 - nebraska63 finale intro
TTITLE28=Nebraska Project 2 - crowd
TTITLE29=Nebraska Project 2 - bruce with everybody
TTITLE30=Nebraska Project 2 - nebraska66 bruce interview
TTITLE31=Nebraska Project 2 - goodnight
EXTD=YEAR: 2006
EXTT0=
EXTT1=
EXTT2=
EXTT3=
EXTT4=
EXTT5=
EXTT6=
EXTT7=
EXTT8=
EXTT9=
EXTT10=
EXTT11=
EXTT12=
EXTT13=
EXTT14=
EXTT15=
EXTT16=
EXTT17=
EXTT18=
EXTT19=
EXTT20=
EXTT21=
EXTT22=
EXTT23=
EXTT24=
EXTT25=
EXTT26=
EXTT27=
EXTT28=
EXTT29=
EXTT30=
EXTT31=
PLAYORDER=
